<svg width="16" height="16" viewBox="0 0 16 16" fill="none" xmlns="http://www.w3.org/2000/svg">
<path d="M13.736 4.16031H12.1603V2.48799C12.1603 1.29247 11.217 0.320312 10.0182 0.320312H5.98271C4.78335 0.320312 3.84031 1.29247 3.84031 2.48799V4.16031H2.26431C1.19039 4.16031 0.320312 4.98943 0.320312 6.06015V13.4224C0.320312 14.4928 1.19039 15.3603 2.26431 15.3603H13.736C14.8096 15.3603 15.6803 14.4928 15.6803 13.4221V6.06015C15.6803 4.98943 14.8096 4.16031 13.736 4.16031ZM5.12031 2.48799C5.12031 2.04031 5.53375 1.60031 5.98271 1.60031H10.0182C10.4659 1.60031 10.8803 2.04031 10.8803 2.48799V4.16031H5.12031V2.48799ZM11.5203 11.2003H9.28031V13.4403H6.72031V11.2003H4.48031V8.64031H6.72031V6.40031H9.28031V8.64031H11.5203V11.2003Z" fill="#37ADFF"/>
</svg>
